<mxfile host="app.diagrams.net" agent="Mozilla/5.0 (Windows NT 10.0; Win64; x64) AppleWebKit/537.36 (KHTML, like Gecko) Chrome/130.0.0.0 Safari/537.36" version="24.8.0">
  <diagram id="C5RBs43oDa-KdzZeNtuy" name="Page-1">
    <mxGraphModel dx="794" dy="412" grid="1" gridSize="10" guides="1" tooltips="1" connect="1" arrows="1" fold="1" page="1" pageScale="1" pageWidth="827" pageHeight="1169" math="0" shadow="0">
      <root>
        <mxCell id="WIyWlLk6GJQsqaUBKTNV-0" />
        <mxCell id="WIyWlLk6GJQsqaUBKTNV-1" parent="WIyWlLk6GJQsqaUBKTNV-0" />
        <object label="&lt;h1 style=&quot;padding-right: 0px;&quot;&gt;&lt;font style=&quot;font-size: 24px;&quot; face=&quot;Helvetica&quot;&gt;Student&lt;/font&gt;&lt;/h1&gt;" Student="" id="9OXQ4vys2jdDQoHRg42y-0">
          <mxCell style="swimlane;fontStyle=1;align=center;verticalAlign=top;childLayout=stackLayout;horizontal=1;startSize=70;horizontalStack=0;resizeParent=1;resizeParentMax=0;resizeLast=0;collapsible=1;marginBottom=0;whiteSpace=wrap;html=1;fillColor=#f8cecc;strokeColor=#b85450;fillStyle=auto;gradientColor=none;swimlaneFillColor=default;rounded=0;glass=0;shadow=1;autosize=0;" vertex="1" parent="WIyWlLk6GJQsqaUBKTNV-1">
            <mxGeometry x="190" y="100" width="490" height="550" as="geometry" />
          </mxCell>
        </object>
        <mxCell id="9OXQ4vys2jdDQoHRg42y-1" value="- id: string&lt;div&gt;- name: string&lt;/div&gt;&lt;div&gt;- birth: string&lt;/div&gt;&lt;div&gt;- sex: string&lt;/div&gt;&lt;div&gt;- address: string&lt;/div&gt;&lt;div&gt;- mclass: string&lt;/div&gt;&lt;div&gt;&lt;font style=&quot;font-size: 14px;&quot;&gt;- sclass: string&amp;nbsp;&lt;/font&gt;&lt;/div&gt;&lt;div&gt;- number_of_subjects: int&lt;/div&gt;&lt;div&gt;- gpa: float = 0&lt;/div&gt;&lt;div&gt;- cpa: float = 0&lt;/div&gt;&lt;div&gt;- training_score: float = 0&lt;/div&gt;&lt;div&gt;- hocluc: string = &#39;&#39;&lt;/div&gt;" style="text;strokeColor=none;fillColor=none;align=left;verticalAlign=top;spacingLeft=4;spacingRight=4;overflow=hidden;rotatable=0;points=[[0,0.5],[1,0.5]];portConstraint=eastwest;whiteSpace=wrap;html=1;noLabel=0;snapToPoint=0;fixDash=0;dropTarget=0;" vertex="1" parent="9OXQ4vys2jdDQoHRg42y-0">
          <mxGeometry y="70" width="490" height="180" as="geometry" />
        </mxCell>
        <mxCell id="9OXQ4vys2jdDQoHRg42y-2" value="" style="line;strokeWidth=1;fillColor=none;align=left;verticalAlign=middle;spacingTop=-1;spacingLeft=3;spacingRight=3;rotatable=0;labelPosition=right;points=[];portConstraint=eastwest;strokeColor=inherit;" vertex="1" parent="9OXQ4vys2jdDQoHRg42y-0">
          <mxGeometry y="250" width="490" height="8" as="geometry" />
        </mxCell>
        <mxCell id="9OXQ4vys2jdDQoHRg42y-3" value="&lt;div&gt;+ Student(&lt;span style=&quot;background-color: initial;&quot;&gt;id: string,&amp;nbsp;&lt;/span&gt;&lt;span style=&quot;background-color: initial;&quot;&gt;name: string,&amp;nbsp;&lt;/span&gt;&lt;span style=&quot;background-color: initial;&quot;&gt;birth: string,&amp;nbsp;&lt;/span&gt;&lt;span style=&quot;background-color: initial;&quot;&gt;sex: string,&amp;nbsp;&lt;/span&gt;&lt;span style=&quot;background-color: initial;&quot;&gt;address: string,&amp;nbsp;&lt;/span&gt;&lt;span style=&quot;background-color: initial;&quot;&gt;mclass: string,&amp;nbsp;&lt;/span&gt;&lt;span style=&quot;background-color: initial;&quot;&gt;sclass: string,&amp;nbsp;&lt;/span&gt;&lt;span style=&quot;background-color: initial;&quot;&gt;number_of_subjects: int,&amp;nbsp;&lt;/span&gt;&lt;span style=&quot;background-color: initial;&quot;&gt;gpa: float = 0,&amp;nbsp;&lt;/span&gt;&lt;span style=&quot;background-color: initial;&quot;&gt;cpa: float = 0,&amp;nbsp;&lt;/span&gt;&lt;span style=&quot;background-color: initial;&quot;&gt;training_score: float = 0,&amp;nbsp;&lt;/span&gt;&lt;span style=&quot;background-color: initial;&quot;&gt;hocluc: string = &#39;&#39;): void&lt;/span&gt;&lt;/div&gt;&lt;div&gt;&lt;span style=&quot;background-color: initial;&quot;&gt;+ chuan_hoaname(): string&lt;/span&gt;&lt;/div&gt;&lt;div&gt;&lt;span style=&quot;background-color: initial;&quot;&gt;+ chuan_hoabirth(): date&lt;/span&gt;&lt;/div&gt;&lt;div&gt;&lt;span style=&quot;background-color: initial;&quot;&gt;&lt;br&gt;&lt;/span&gt;&lt;/div&gt;&lt;div&gt;&lt;span style=&quot;background-color: initial;&quot;&gt;+ caculate_score(): void&lt;/span&gt;&lt;/div&gt;&lt;div&gt;+ get_gpa(): float&lt;/div&gt;&lt;div&gt;+ get_gpa(): float&lt;/div&gt;&lt;div&gt;+ hocluc(): string&lt;/div&gt;&lt;div&gt;+ display_gpa(): string&lt;/div&gt;&lt;div&gt;+ display_cpa(): string&lt;/div&gt;&lt;div&gt;+ display_hocluc(): string&lt;/div&gt;&lt;div&gt;&lt;br&gt;&lt;/div&gt;&lt;div&gt;+ xu_li_gpa(): int&lt;/div&gt;&lt;div&gt;+ diem_ren_luyen(sk1: int, sk2: int, ngoai_tru: int, thanh_tich: int): float&lt;/div&gt;&lt;div&gt;+ display_sv(): string&lt;/div&gt;&lt;div&gt;+ display_drl(): string&lt;/div&gt;&lt;div&gt;+ display_all(): string&lt;/div&gt;&lt;div&gt;&lt;br&gt;&lt;/div&gt;&lt;div&gt;&lt;span style=&quot;background-color: initial;&quot;&gt;&lt;br&gt;&lt;/span&gt;&lt;/div&gt;" style="text;strokeColor=none;fillColor=none;align=left;verticalAlign=top;spacingLeft=4;spacingRight=4;overflow=hidden;rotatable=0;points=[[0,0.5],[1,0.5]];portConstraint=eastwest;whiteSpace=wrap;html=1;" vertex="1" parent="9OXQ4vys2jdDQoHRg42y-0">
          <mxGeometry y="258" width="490" height="292" as="geometry" />
        </mxCell>
      </root>
    </mxGraphModel>
  </diagram>
</mxfile>
